<?xml version="1.0" standalone="no"?><!DOCTYPE svg PUBLIC "-//W3C//DTD SVG 1.1//EN" "http://www.w3.org/Graphics/SVG/1.1/DTD/svg11.dtd" ><svg xmlns="http://www.w3.org/2000/svg"><metadata></metadata><defs><font id="fonteditor" horiz-adv-x="250"><font-face font-family="PZ[WQe9 e{OSOS" font-weight="256" font-stretch="normal" units-per-em="250" panose-1="0 0 0 0 0 0 0 0 0 0" ascent="200" descent="50" x-height="0" bbox="5 -35 245 186" underline-thickness="0" underline-position="0" unicode-range="U+4e00-ff0c" /><missing-glyph horiz-adv-x="250"  /><glyph glyph-name="uni4E00" unicode="&#x4e00;" d="M214 103 Q207 99 199 97 Q179 98 146 98 Q129 98 28 86 Q19 83 11 81 Q9 80 7 79 Q6 77 5 74 Q7 68 16 54 Q24 50 33 47 Q37 47 41 47 Q52 51 65 58 Q124 68 152 71 Q174 73 197 74 Q201 73 205 72 Q221 61 231 58 Q237 60 244 65 Q245 69 244 81 Q243 83 241 87 Q235 93 227 99 Q225 101 221 103 Q218 103 214 103 Z" /><glyph glyph-name="uni4E03" unicode="&#x4e03;" d="M107 157 Q104 156 102 155 Q101 150 100 144 Q102 135 106 126 Q107 108 107 89 Q64 77 39 68 Q37 67 34 65 Q32 62 32 59 Q33 55 36 50 Q41 45 47 39 Q50 39 54 39 Q76 48 106 59 Q108 31 113 5 Q116 0 120 -4 Q132 -6 145 -7 Q162 -6 179 -6 Q184 -4 189 -3 Q190 -2 191 0 Q191 3 191 6 Q190 9 188 12 Q183 16 178 21 Q172 22 132 22 Q130 30 131 65 Q132 66 166 74 Q175 75 184 77 Q190 77 197 77 Q203 76 209 75 Q213 77 218 81 Q219 86 219 95 Q217 97 214 101 Q212 102 192 108 Q190 108 177 102 Q155 98 133 95 Q131 97 136 130 Q135 134 134 139 Q132 142 129 145 Q118 151 107 157 Z" /><glyph glyph-name="uni4E07" unicode="&#x4e07;" d="M192 161 Q187 159 181 158 Q171 158 160 158 Q137 156 91 152 Q76 148 59 146 Q54 144 49 141 Q48 140 49 134 Q54 126 60 120 Q65 119 70 119 Q84 124 99 128 Q111 130 123 133 Q127 133 130 132 Q128 124 124 117 Q107 96 89 75 Q67 50 43 25 Q39 20 37 13 Q48 18 72 33 Q84 42 97 54 Q111 69 123 83 Q138 85 152 86 Q157 86 161 85 Q160 70 156 57 Q154 51 136 19 Q132 15 126 12 Q112 18 97 24 Q100 18 102 11 Q101 7 102 -2 Q104 -7 108 -10 Q116 -9 125 -8 Q128 -9 133 -9 Q140 -8 148 -5 Q155 0 162 7 Q169 16 176 26 Q181 41 185 57 Q187 70 191 83 Q190 87 189 91 Q188 92 187 94 Q181 97 175 101 Q173 101 170 101 Q167 99 163 95 Q143 98 136 101 Q144 109 150 117 Q152 120 153 125 Q152 130 152 136 Q164 136 176 136 Q181 136 207 132 Q210 135 212 139 Q213 141 212 149 Q210 151 192 161 Z" /><glyph glyph-name="uni4E09" unicode="&#x4e09;" d="M141 162 Q134 160 127 157 Q104 154 82 152 Q79 148 78 145 Q81 138 83 130 Q89 125 94 122 Q99 121 104 120 Q120 123 138 126 Q148 130 158 134 Q160 136 161 139 Q160 145 160 151 Q158 153 156 155 Q149 159 141 162 ZM132 98 Q125 95 88 87 Q87 78 89 74 Q91 71 95 67 Q100 62 106 60 Q112 60 118 60 Q142 68 151 73 Q153 76 154 80 Q154 84 153 88 Q151 91 147 95 Q140 97 132 98 ZM183 33 Q176 31 170 29 Q147 29 124 28 Q102 26 48 18 Q44 17 40 15 Q39 11 39 7 Q41 2 43 -3 Q47 -9 52 -12 Q101 -5 131 -1 Q145 -1 160 -1 Q168 -1 176 -1 Q180 -1 200 -6 Q203 -5 208 -3 Q210 -1 211 2 Q212 5 211 17 Q210 20 208 22 Q196 27 183 33 Z" /><glyph glyph-name="uni4E1A" unicode="&#x4e1a;" d="M147 159 Q143 156 140 152 Q138 127 137 100 Q135 78 133 56 Q130 43 128 30 Q113 27 108 28 Q105 53 104 79 Q104 98 104 117 Q105 129 108 141 Q107 142 106 144 Q103 147 98 151 Q93 153 90 153 Q86 149 84 145 Q83 138 83 131 Q83 78 86 25 Q61 20 36 17 Q34 15 33 13 Q33 9 35 4 Q38 0 42 -4 Q46 -7 49 -9 Q72 -4 100 -1 Q119 1 151 1 Q164 1 177 1 Q189 0 202 -2 Q205 -2 209 -2 Q214 2 217 6 Q218 10 218 14 Q216 17 214 20 Q211 23 207 27 Q202 28 198 29 Q177 30 155 30 Q160 64 167 146 Q165 149 162 152 Q159 154 147 159 ZM190 115 Q169 73 161 54 Q175 68 189 84 Q199 89 208 94 Q209 97 209 101 Q208 104 205 107 Q202 110 199 112 Q194 115 190 115 ZM49 90 Q47 87 45 84 Q45 77 45 71 Q48 67 51 63 Q58 58 64 55 Q65 55 66 55 Q68 58 71 62 Q72 75 75 86 Q68 85 60 85 Q58 87 55 89 Q53 90 49 90 Z" /><glyph glyph-name="uni4E4B" unicode="&#x4e4b;" d="M101 155 Q97 153 93 151 Q91 148 91 143 Q91 142 92 140 Q96 137 100 135 Q102 132 104 129 Q85 124 66 119 Q62 118 57 117 Q53 115 49 112 Q49 108 49 105 Q52 100 60 95 Q65 95 70 95 Q88 106 105 117 Q106 118 107 117 Q108 114 110 109 Q112 108 115 109 Q117 111 119 113 Q122 120 125 127 Q130 131 134 134 Q134 134 127 134 Q125 137 123 142 Q122 143 113 151 Q111 153 101 155 ZM163 142 Q159 140 154 139 Q151 132 148 125 Q112 96 94 79 Q101 80 181 119 Q183 122 184 125 Q183 128 182 131 Q179 135 175 138 Q173 140 170 141 Q167 142 163 142 ZM41 60 Q37 59 33 58 Q31 57 30 55 Q30 50 31 46 Q33 42 37 38 Q47 37 70 37 Q71 36 73 36 Q83 28 94 20 Q100 17 107 13 Q122 8 137 2 Q152 -1 168 -4 Q174 -4 181 -3 Q185 1 189 6 Q204 10 216 12 Q218 13 220 15 Q220 17 220 19 Q218 21 217 22 Q128 35 123 35 Q114 38 77 56 Q72 58 65 60 Q54 60 41 60 Z" /><glyph glyph-name="uni4E52" unicode="&#x4e52;" d="M147 163 Q129 153 110 144 Q107 141 104 138 Q104 136 106 134 Q145 141 162 145 Q164 146 164 149 Q163 153 160 158 Q158 160 155 162 Q152 163 147 163 ZM90 139 Q89 139 87 138 Q84 133 84 127 Q84 91 85 55 Q68 52 51 49 Q49 48 46 48 Q42 46 39 45 Q38 44 37 43 Q38 38 40 34 Q42 31 44 28 Q47 26 50 24 Q56 24 91 33 Q73 11 57 -13 Q64 -10 108 18 Q112 21 114 25 Q112 31 109 38 Q124 40 156 42 Q170 42 185 42 Q190 41 202 37 Q205 38 207 38 Q210 41 213 47 Q213 53 212 56 Q210 58 196 66 Q195 66 193 66 Q192 66 187 63 Q184 63 158 63 Q162 75 165 86 Q165 88 165 91 Q163 93 160 96 Q170 98 181 100 Q182 103 182 108 Q180 110 179 113 Q177 114 175 116 Q171 117 167 118 Q131 112 103 106 Q102 116 104 128 Q103 129 102 132 Q99 135 96 138 Q94 138 90 139 ZM141 93 Q142 93 144 93 Q145 91 145 90 Q140 71 135 61 Q131 61 127 61 Q115 59 104 58 Q102 73 102 88 Q102 88 112 86 Q119 88 127 91 Q134 91 141 93 Z" /><glyph glyph-name="uni4E5D" unicode="&#x4e5d;" d="M111 159 Q106 156 102 152 Q102 147 101 142 Q95 131 90 120 Q75 114 60 109 Q54 107 49 103 Q48 102 49 97 Q52 91 58 86 Q61 84 63 84 Q68 85 73 88 Q74 87 74 86 Q58 56 42 26 Q36 15 33 4 Q34 4 36 4 Q50 20 65 34 Q73 45 81 57 Q95 79 109 104 Q111 106 133 118 Q134 118 135 117 Q127 97 119 77 Q115 58 112 39 Q113 31 113 23 Q114 19 115 14 Q118 9 122 4 Q129 0 136 -5 Q143 -7 149 -8 Q160 -8 172 -8 Q186 -7 201 -3 Q208 0 215 6 Q217 9 218 24 Q214 30 210 36 Q209 45 208 55 Q203 42 199 29 Q197 26 194 24 Q179 22 165 22 Q157 22 148 22 Q143 23 138 27 Q136 29 135 31 Q136 38 136 46 Q140 59 143 72 Q150 87 158 103 Q163 111 170 118 Q172 122 172 129 Q171 131 169 133 Q168 134 154 140 Q152 140 126 131 Q124 132 129 143 Q128 146 127 148 Q126 151 124 154 Q121 156 118 157 Q116 159 111 159 Z" /><glyph glyph-name="uni4E8C" unicode="&#x4e8c;" d="M139 157 Q131 154 122 150 Q103 147 81 142 Q79 138 79 135 Q81 129 84 123 Q87 119 90 116 Q97 113 105 111 Q115 113 125 114 Q140 117 161 126 Q162 129 164 132 Q163 138 161 145 Q158 147 155 151 Q146 156 139 157 ZM189 43 Q185 41 181 40 Q151 39 120 38 Q100 36 79 34 Q62 31 44 28 Q39 27 35 25 Q32 23 30 18 Q33 11 36 4 Q42 -3 48 -7 Q57 -7 116 6 Q137 7 173 7 Q179 7 206 0 Q209 1 212 2 Q215 6 218 10 Q218 13 220 16 Q220 20 219 24 Q218 25 217 28 Q213 31 209 34 Q203 37 198 40 Q196 42 189 43 Z" /><glyph glyph-name="uni4E94" unicode="&#x4e94;" d="M155 161 Q144 157 133 154 Q110 151 84 150 Q83 147 82 144 Q84 132 88 125 Q91 123 95 121 Q113 121 118 120 Q110 105 102 90 Q99 88 89 88 Q85 87 78 83 Q77 77 77 71 Q80 67 86 63 Q87 62 87 61 Q76 40 66 19 Q53 16 39 14 Q39 13 37 12 Q38 6 39 0 Q43 -5 52 -11 Q66 -9 80 -7 Q101 -5 122 -3 Q148 -3 174 -4 Q185 -5 200 -7 Q203 -7 206 -7 Q210 -3 214 2 Q214 6 213 10 Q211 14 202 22 Q199 23 152 24 Q156 33 160 41 Q169 73 169 79 Q168 81 167 84 Q162 88 156 92 Q153 93 150 93 Q146 91 143 90 Q134 88 125 89 Q135 103 145 118 Q148 123 149 127 Q150 128 169 136 Q171 144 170 151 Q167 155 164 157 Q161 159 155 161 ZM137 77 Q139 77 141 77 Q142 76 143 73 Q140 60 133 35 Q131 33 130 32 Q129 31 122 32 Q121 28 120 23 Q94 21 90 22 Q101 44 112 67 Q114 68 136 76 L137 77 Z" /><glyph glyph-name="uni4F5C" unicode="&#x4f5c;" d="M145 172 Q140 167 125 141 Q120 127 114 113 Q112 103 110 93 Q110 90 114 87 Q119 87 125 87 Q126 88 133 106 Q136 103 140 100 Q144 98 148 97 Q148 83 148 -4 Q149 -13 151 -22 Q153 -22 154 -22 Q161 -8 166 -4 Q168 3 169 18 Q174 18 180 18 Q187 21 195 23 Q198 24 200 26 Q200 31 200 35 Q200 37 193 42 Q192 43 168 39 Q170 47 171 61 Q182 62 195 67 Q197 67 198 69 Q199 72 199 75 Q199 78 197 82 Q194 84 190 87 Q181 85 172 83 Q171 83 172 93 Q172 98 173 103 Q188 106 204 110 Q207 113 210 117 Q210 120 210 123 Q208 127 205 131 Q200 132 195 134 Q192 134 144 121 Q150 131 156 140 Q158 147 161 154 Q161 160 159 165 Q156 168 153 171 Q150 172 145 172 ZM80 160 Q77 158 48 103 Q43 93 40 82 Q40 80 40 77 Q41 74 45 73 Q47 75 50 76 Q60 85 70 94 Q67 73 65 21 Q66 13 67 3 Q69 -1 73 -5 Q78 -1 84 4 Q86 6 87 10 Q85 39 85 67 Q87 83 89 100 Q87 102 86 105 Q81 106 77 109 Q85 119 93 129 Q96 133 99 141 Q99 144 98 147 Q96 150 94 154 Q92 155 90 157 Q87 159 80 160 Z" /><glyph glyph-name="uni4F60" unicode="&#x4f60;" d="M80 166 Q67 148 55 130 Q47 115 39 99 Q35 88 32 76 Q32 73 32 69 Q37 72 41 79 Q44 80 51 80 Q59 90 67 101 Q65 88 62 74 Q60 48 59 22 Q59 9 60 -3 Q61 -7 63 -11 Q65 -12 68 -14 Q72 -10 78 -6 Q79 -5 81 -3 Q82 -1 82 2 Q80 30 81 61 Q82 80 86 94 Q86 97 86 100 Q84 103 82 106 Q78 108 72 109 Q83 122 95 136 Q99 142 103 148 Q103 151 102 155 Q101 157 98 161 Q90 164 80 166 ZM140 163 Q134 157 128 150 Q118 131 110 112 Q107 101 105 88 Q106 86 108 84 Q110 84 113 84 Q115 84 118 84 Q125 96 133 109 Q134 109 139 100 Q142 98 144 98 Q164 108 182 115 Q184 115 184 113 Q178 102 175 93 Q178 93 194 104 Q201 105 208 106 Q210 107 212 108 Q213 110 215 113 Q215 117 215 121 Q214 123 213 125 Q209 128 199 133 Q197 134 195 134 Q193 134 183 128 Q164 126 145 123 Q151 136 155 149 Q155 152 154 155 Q150 159 146 163 Q143 163 140 163 ZM149 91 Q146 90 142 85 Q142 78 147 63 Q147 44 145 26 Q144 20 142 12 Q140 9 138 7 Q130 5 122 6 Q124 -2 126 -10 Q130 -14 133 -16 Q146 -11 159 -7 Q161 -5 163 -3 Q167 3 169 12 Q170 25 171 38 Q169 59 166 80 Q164 84 161 87 Q159 88 157 90 Q153 91 149 91 ZM193 66 Q191 65 189 62 Q188 59 188 57 Q195 32 201 22 Q203 22 207 22 Q209 23 213 26 Q215 30 218 34 Q218 38 217 43 Q213 53 209 60 Q207 63 203 65 Q199 66 193 66 ZM102 59 Q100 58 96 53 Q95 45 94 38 Q96 33 98 28 Q102 24 107 19 Q108 19 110 19 Q113 21 115 24 Q118 39 124 52 Q120 49 116 44 Q111 50 107 56 Q105 57 102 59 Z" /><glyph glyph-name="uni516B" unicode="&#x516b;" d="M123 138 Q117 137 112 135 Q110 132 110 125 Q117 113 129 101 Q136 84 143 67 Q152 55 160 42 Q167 35 198 12 Q200 12 203 14 Q206 17 210 22 Q213 22 226 14 Q228 14 230 14 Q232 16 234 19 Q234 20 234 22 Q233 24 185 66 Q180 72 175 77 Q165 94 154 111 Q151 115 148 119 Q139 126 130 135 Q127 137 123 138 ZM73 101 Q70 99 67 96 Q51 75 36 55 Q28 44 21 32 Q18 24 17 17 Q20 17 29 24 Q32 25 38 26 Q43 30 48 33 Q57 41 83 70 Q88 82 88 86 Q86 91 83 96 Q82 97 80 99 Q78 101 73 101 Z" /><glyph glyph-name="uni516D" unicode="&#x516d;" d="M102 158 Q98 156 94 153 Q92 149 92 145 Q93 143 94 141 Q102 135 107 130 Q109 124 110 118 Q83 114 57 111 Q47 109 37 106 Q33 102 32 98 Q34 94 36 90 Q40 84 45 79 Q52 79 111 92 Q111 92 113 92 Q115 90 117 87 Q120 87 124 87 Q126 89 130 94 Q149 95 169 96 Q179 96 189 96 Q192 96 208 92 Q215 94 218 97 Q219 101 219 108 Q218 113 216 116 Q206 120 196 125 Q189 123 183 121 Q162 121 141 120 Q140 125 139 130 Q136 137 131 144 Q124 151 118 155 Q115 157 111 158 Q107 158 102 158 ZM94 68 Q90 66 79 52 Q66 35 56 18 Q52 9 48 0 Q48 -3 49 -6 Q55 -3 62 0 Q82 24 102 49 Q104 56 104 59 Q102 63 100 67 Q98 68 94 68 ZM157 53 Q153 53 149 49 Q147 45 147 41 Q165 5 174 -8 Q177 -8 180 -8 Q183 -6 187 -2 Q190 1 194 11 Q194 14 194 17 Q192 22 190 26 Q183 36 174 48 Q169 51 164 53 Q161 53 157 53 Z" /><glyph glyph-name="uni5174" unicode="&#x5174;" d="M172 162 Q170 161 168 157 Q168 153 164 144 Q153 123 137 85 Q133 83 116 83 Q72 73 37 65 Q35 63 33 62 Q31 60 31 57 Q33 53 35 49 Q41 45 46 42 Q51 42 56 42 Q64 46 74 51 Q81 53 88 56 Q104 59 121 63 Q141 67 161 69 Q171 70 181 70 Q196 69 209 66 Q213 67 217 68 Q219 71 219 74 Q219 77 218 80 Q217 81 217 83 Q210 87 204 91 Q200 91 196 92 Q172 89 147 85 Q166 111 188 138 Q190 142 193 148 Q193 149 190 153 Q187 156 183 159 Q179 161 172 162 ZM109 148 Q106 146 104 142 Q103 136 103 130 Q106 125 109 120 Q115 115 122 112 Q125 115 128 119 Q130 134 134 144 Q132 144 123 139 Q119 142 115 146 Q113 147 109 148 ZM65 134 Q64 133 62 133 Q60 130 59 127 Q60 120 62 113 Q65 105 69 97 Q72 93 85 82 Q87 82 90 82 Q92 83 95 87 Q95 93 92 106 Q84 116 78 129 Q76 130 65 134 ZM92 45 Q90 44 88 43 Q84 40 81 36 Q72 21 62 5 Q59 -3 57 -12 Q60 -10 64 -8 Q86 13 107 30 Q107 32 109 34 Q109 36 107 39 Q105 41 103 42 Q99 44 92 45 ZM156 41 Q154 40 151 39 Q150 37 150 34 Q157 25 173 0 Q177 -6 182 -10 Q184 -10 186 -10 Q189 -4 192 2 Q194 6 195 12 Q194 14 194 17 Q192 20 189 24 Q184 28 180 32 Q174 36 169 39 Q167 40 165 41 Q161 41 156 41 Z" /><glyph glyph-name="uni5206" unicode="&#x5206;" d="M121 162 Q119 161 118 160 Q116 158 115 156 Q115 151 115 145 Q120 135 127 127 Q130 119 132 110 Q137 101 144 92 Q149 86 154 81 Q163 75 172 69 Q178 66 184 64 Q189 66 194 69 Q201 66 209 63 Q211 63 214 65 Q214 67 214 71 Q207 77 200 83 Q184 95 169 107 Q164 111 159 117 Q148 135 135 152 Q134 155 131 158 Q129 160 126 161 Q124 162 121 162 ZM90 128 Q87 127 82 124 Q70 110 59 95 Q52 83 44 72 Q39 61 37 51 Q38 51 40 51 Q45 56 51 60 Q72 85 94 110 Q96 113 97 116 Q98 119 98 122 Q97 123 97 125 Q95 127 90 128 ZM116 79 Q106 78 94 78 Q92 76 90 73 Q89 73 88 72 Q88 68 90 64 Q93 61 95 59 Q79 36 64 10 Q64 9 64 7 Q65 6 68 7 Q80 19 91 31 Q103 45 115 60 Q123 63 135 67 Q137 64 138 61 Q138 54 136 43 Q133 36 130 28 Q128 25 125 21 Q121 16 116 13 Q105 13 94 15 Q98 5 101 -4 Q103 -8 107 -11 Q111 -10 115 -7 Q118 -6 122 -7 Q131 -2 140 4 Q145 9 150 15 Q154 23 158 32 Q159 38 160 43 Q161 69 160 72 Q159 73 147 78 Q132 78 116 79 Z" /><glyph glyph-name="uni521B" unicode="&#x521b;" d="M195 169 Q193 169 190 168 Q189 166 189 164 Q192 138 193 110 Q194 37 193 15 Q191 10 189 6 Q180 5 171 5 Q177 -7 184 -19 Q201 -11 203 -11 Q205 -10 208 -7 Q210 -3 212 2 Q214 11 216 21 Q216 47 212 155 Q212 157 210 160 Q207 164 203 167 Q201 169 195 169 ZM82 158 Q79 155 46 99 Q41 89 36 78 Q35 73 37 71 Q39 73 42 76 Q45 77 48 78 Q51 82 54 85 Q72 110 89 135 Q92 132 95 130 Q100 122 106 114 Q114 106 123 98 Q126 96 130 94 Q132 94 137 98 Q139 99 150 98 Q151 100 151 103 Q149 107 136 119 Q125 128 114 138 Q110 141 105 145 Q93 153 82 158 ZM166 128 Q164 127 162 126 Q160 123 158 118 Q157 99 157 79 Q158 70 160 61 Q162 58 166 55 Q169 57 171 58 Q173 61 175 64 Q172 89 173 116 Q172 119 171 123 Q170 125 166 128 ZM105 91 Q98 89 91 88 Q78 87 67 88 Q65 87 63 85 Q61 81 60 76 Q59 27 61 12 Q67 3 73 -5 Q77 -8 82 -10 Q88 -11 95 -13 Q112 -13 130 -12 Q134 -10 139 -8 Q146 2 149 10 Q148 12 148 15 Q145 19 142 23 Q142 30 141 37 Q139 37 132 17 Q128 14 124 12 Q110 8 96 8 Q92 8 89 9 Q83 12 77 18 Q75 30 75 43 Q76 56 78 69 Q85 74 93 78 Q96 80 100 80 Q101 74 101 53 Q100 51 99 49 Q94 44 90 39 Q89 37 91 34 Q94 33 99 33 Q105 35 110 37 Q113 40 116 44 Q117 53 119 61 Q120 71 119 86 Q119 87 114 91 Q110 91 105 91 Z" /><glyph glyph-name="uni524D" unicode="&#x524d;" d="M155 174 Q143 159 131 144 Q128 141 126 139 Q121 138 116 137 Q112 136 107 136 Q108 141 108 147 Q106 156 104 165 Q102 167 100 169 Q98 170 95 169 Q92 167 90 163 Q89 159 88 154 Q94 143 100 136 Q74 131 39 124 Q37 122 35 121 Q34 119 34 116 Q36 112 38 108 Q42 104 47 100 Q51 100 56 100 Q69 104 82 109 Q102 113 122 118 Q144 120 167 122 Q176 122 185 122 Q204 118 211 118 Q214 122 216 126 Q216 129 216 133 Q215 134 213 136 Q207 140 200 144 Q199 144 197 145 Q193 143 189 141 Q166 140 142 139 Q141 140 174 161 Q175 163 174 166 Q172 168 170 171 Q168 172 165 173 Q160 174 155 174 ZM169 115 Q166 114 164 112 Q167 85 168 66 Q168 38 167 8 Q166 5 164 2 Q155 0 146 0 Q153 -12 159 -24 Q168 -20 178 -16 Q182 -14 185 -10 Q187 -6 189 4 Q190 50 188 102 Q187 105 181 111 Q178 113 176 115 Q173 115 169 115 ZM108 103 Q104 100 96 98 Q92 97 87 96 Q84 96 81 98 Q80 99 74 98 Q70 92 66 74 Q64 50 61 25 Q61 12 61 -1 Q62 -6 64 -10 Q65 -12 67 -13 Q72 -9 78 -4 Q79 -2 80 1 Q79 10 78 20 Q90 22 101 26 Q102 14 100 2 Q95 0 90 -1 Q94 -10 98 -18 Q108 -15 118 -11 Q121 -8 124 -4 Q126 16 128 17 Q128 47 128 77 Q126 77 124 78 Q123 89 120 96 Q119 98 117 100 Q113 102 108 103 ZM144 91 Q142 90 140 88 Q138 82 136 76 Q138 69 137 44 Q140 40 144 34 Q146 35 150 38 Q151 40 152 43 Q152 48 153 53 Q152 56 153 77 Q152 82 150 87 Q150 88 148 90 Q146 91 144 91 ZM98 90 Q100 90 102 86 Q102 77 102 68 Q102 67 98 72 Q97 72 82 71 Q82 76 84 81 Q87 84 98 90 ZM102 65 Q102 54 102 42 Q91 39 79 38 Q80 44 80 51 Q89 54 98 58 Q100 59 101 64 L102 65 Z" /><glyph glyph-name="uni5341" unicode="&#x5341;" d="M125 166 Q122 165 118 164 Q116 160 114 155 Q116 147 116 138 Q116 121 116 103 Q89 99 62 96 Q56 95 50 93 Q47 92 44 91 Q41 90 40 87 Q41 80 45 73 Q48 71 66 63 Q70 63 74 64 Q82 68 90 73 Q98 73 115 78 Q116 69 118 3 Q120 -11 123 -15 Q124 -14 125 -12 Q132 3 139 19 Q140 51 141 84 Q145 85 175 88 Q178 88 181 88 Q185 87 199 79 Q203 79 208 82 Q210 86 211 91 Q210 95 208 100 Q205 103 191 112 Q189 112 179 106 Q160 106 142 106 Q141 118 144 146 Q143 149 142 153 Q138 157 133 162 Q130 163 125 166 Z" /><glyph glyph-name="uni5343" unicode="&#x5343;" d="M144 173 Q126 164 97 152 Q91 150 84 144 Q83 141 85 140 Q101 142 117 144 Q117 126 116 107 Q75 100 59 96 Q54 95 50 93 Q48 91 47 89 Q48 84 50 79 Q56 74 65 69 Q68 69 72 69 Q82 72 92 78 Q103 81 115 83 Q115 51 116 18 Q121 -16 124 -23 Q129 -15 132 -8 Q136 5 139 23 Q140 55 140 87 Q144 88 165 90 Q170 90 195 86 Q198 87 203 91 Q203 101 202 104 Q199 106 196 109 Q189 111 183 114 Q177 114 140 109 Q141 122 143 135 Q142 138 135 144 Q137 146 155 148 Q160 150 163 153 Q163 156 163 159 Q161 163 158 167 Q156 170 153 172 Q149 173 144 173 Z" /><glyph glyph-name="uni5386" unicode="&#x5386;" d="M184 166 Q158 162 132 159 Q120 157 109 156 Q105 155 100 152 Q100 148 58 52 Q52 35 45 17 Q43 10 40 2 Q40 -1 41 -4 Q42 -4 43 -4 Q51 7 61 18 Q77 49 116 132 Q118 134 128 136 Q138 138 199 145 Q201 146 203 148 Q204 154 202 156 Q200 159 195 164 Q194 165 192 166 Q188 166 184 166 ZM158 129 Q155 127 152 124 Q151 120 150 114 Q147 108 144 101 Q138 100 132 99 Q123 97 113 93 Q113 84 117 78 Q123 76 129 77 Q131 77 132 77 Q133 77 133 75 Q102 13 94 -9 Q94 -11 95 -11 Q109 5 125 21 Q130 30 136 38 Q147 59 159 82 Q170 85 181 88 Q183 88 185 86 Q185 81 186 75 Q184 62 183 48 Q180 32 176 22 Q175 19 168 10 Q163 8 145 9 Q145 6 158 -15 Q166 -13 183 -10 Q189 -7 195 -2 Q198 2 201 7 Q204 15 207 23 Q209 44 210 59 Q210 83 209 91 Q204 98 197 104 Q194 105 191 105 Q188 103 170 101 Q173 109 175 117 Q172 122 169 125 Q166 127 163 129 Q161 129 158 129 Z" /><glyph glyph-name="uni56DB" unicode="&#x56db;" d="M144 148 Q130 147 115 146 Q100 144 58 135 Q55 135 46 141 Q43 142 38 142 Q36 140 33 137 Q32 133 31 128 Q31 101 33 72 Q38 54 43 35 Q48 22 60 4 Q63 2 65 2 Q68 4 71 7 Q77 9 82 10 Q95 12 151 17 Q154 9 159 2 Q170 4 181 6 Q188 9 195 12 Q198 15 200 19 Q204 31 209 43 Q213 56 216 71 Q220 116 220 131 Q218 137 216 143 Q212 145 208 147 Q201 147 191 145 Q171 147 144 148 ZM179 133 Q182 133 186 133 Q187 132 189 130 Q190 126 190 118 Q188 97 185 76 Q181 61 178 46 Q176 41 169 32 Q165 31 161 31 Q155 33 150 37 Q146 39 141 39 Q105 36 70 33 Q65 42 63 51 Q60 79 58 108 Q60 109 63 110 Q74 113 94 116 Q95 103 92 88 Q91 84 90 81 Q82 67 75 54 Q76 52 78 52 Q87 58 97 65 Q101 70 106 76 Q110 85 114 108 Q115 115 113 120 Q124 122 135 124 Q135 96 138 73 Q140 69 144 66 Q151 63 157 62 Q161 64 166 65 Q168 67 171 74 Q169 76 167 79 Q161 81 154 84 Q153 90 154 128 Q166 130 179 133 Z" /><glyph glyph-name="uni597D" unicode="&#x597d;" d="M79 165 Q75 161 70 152 Q64 123 58 93 Q48 90 36 87 Q34 86 31 83 Q30 80 30 77 Q34 71 40 66 Q45 66 54 68 Q55 67 50 44 Q53 40 56 37 Q62 35 68 32 Q53 12 52 7 Q53 6 56 7 Q82 25 83 25 Q87 22 90 18 Q96 13 104 2 Q106 0 109 -2 Q112 -1 117 4 Q120 12 120 17 Q116 22 113 28 Q104 35 96 42 Q100 49 106 64 Q109 79 112 94 Q115 97 118 101 Q118 103 119 105 Q118 106 117 108 Q116 110 114 110 Q117 121 117 126 Q116 129 111 133 Q109 135 106 137 Q102 137 99 137 Q97 135 95 133 Q95 126 96 118 Q95 111 94 105 Q88 103 81 100 Q87 124 95 148 Q94 152 90 158 Q89 160 86 163 Q85 164 79 165 ZM182 159 Q175 157 133 152 Q132 147 134 143 Q136 139 143 132 Q146 132 149 132 Q160 139 170 146 Q171 147 174 147 Q175 147 176 146 Q176 145 176 143 Q173 135 165 120 Q160 122 156 123 Q154 122 152 122 Q150 121 148 118 Q148 116 149 113 Q155 106 160 97 Q144 93 129 91 Q126 90 122 89 Q119 88 115 85 Q116 80 117 75 Q122 71 128 67 Q136 67 162 72 Q162 44 161 33 Q158 26 155 18 Q153 15 147 10 Q141 8 131 9 Q134 3 137 -4 Q141 -9 147 -14 Q151 -13 155 -11 Q162 -6 170 0 Q173 2 175 5 Q178 10 181 16 Q184 27 186 37 Q186 49 183 76 Q197 76 210 76 Q213 76 215 78 Q219 81 221 84 Q221 87 221 90 Q219 94 212 99 Q207 100 177 99 Q174 110 171 115 Q188 129 204 142 Q204 144 204 147 Q202 148 200 150 Q198 152 197 154 Q193 155 182 159 ZM89 82 Q90 81 90 80 Q85 66 80 52 Q79 51 78 49 Q73 51 68 54 Q65 56 66 61 Q68 67 70 74 Q79 78 88 81 L89 82 Z" /><glyph glyph-name="uni5DE5" unicode="&#x5de5;" d="M150 160 Q145 158 140 155 Q112 151 83 148 Q82 147 80 145 Q78 141 79 137 Q83 124 87 120 Q92 117 97 114 Q105 113 115 113 Q111 80 105 50 Q102 41 100 31 Q84 29 67 27 Q58 25 37 20 Q34 17 34 9 Q36 5 38 0 Q42 -5 47 -9 Q56 -9 108 1 Q119 2 169 4 Q178 4 188 3 Q193 1 198 -1 Q203 -1 214 4 Q215 10 217 17 Q216 21 215 25 Q213 27 211 29 Q202 32 192 37 Q190 38 188 40 Q171 37 133 35 Q140 67 147 100 Q147 103 145 107 Q145 108 135 117 Q136 118 163 125 Q167 128 170 129 Q173 131 175 136 Q175 141 173 148 Q170 150 166 154 Q162 156 157 159 Q154 160 150 160 Z" /><glyph glyph-name="uni6211" unicode="&#x6211;" d="M126 168 Q123 167 120 164 Q120 162 119 159 Q122 141 124 123 Q119 120 114 117 Q106 113 97 111 Q97 122 96 125 Q102 129 108 134 Q109 138 110 142 Q110 145 108 148 Q106 149 100 149 Q96 148 59 137 Q59 134 59 130 Q61 125 65 119 Q67 117 69 116 Q73 116 78 117 Q79 113 80 103 Q67 97 55 92 Q52 91 52 86 Q54 82 58 77 Q62 74 67 72 Q71 72 81 74 Q81 69 81 65 Q70 57 35 38 Q34 35 35 32 Q37 29 40 25 Q43 23 47 23 Q51 24 56 26 Q68 35 81 44 Q82 44 81 35 Q79 28 78 22 Q77 21 76 19 Q68 18 61 18 Q67 7 72 -3 Q74 -3 91 7 Q93 9 96 11 Q99 17 100 23 Q102 30 102 58 Q107 63 114 70 Q114 72 115 75 Q115 77 114 79 Q107 77 100 77 Q100 81 100 85 Q101 86 127 97 Q132 75 141 54 Q134 44 121 27 Q117 21 114 14 Q116 13 118 13 Q124 16 130 22 Q136 25 142 28 Q146 31 149 36 Q159 21 176 0 Q183 -6 190 -11 Q200 -16 208 -18 Q211 -16 214 -14 Q216 -10 216 -6 Q214 -1 211 4 Q210 15 207 27 Q207 27 206 28 Q205 28 204 28 Q202 21 200 13 Q199 11 196 10 Q191 13 187 17 Q177 28 169 39 Q166 46 161 54 Q168 66 174 78 Q176 85 175 91 Q174 95 172 99 Q171 100 166 99 Q163 98 161 95 Q156 86 152 77 Q148 91 145 106 Q149 108 153 110 Q155 113 157 116 Q157 120 157 123 Q156 125 150 130 Q146 130 142 130 Q141 144 140 158 Q138 161 137 163 Q135 165 132 167 Q129 168 126 168 ZM159 167 Q157 165 155 156 Q156 152 157 148 Q162 143 166 138 Q168 138 170 138 Q173 140 177 142 Q178 146 178 151 Q178 153 178 154 Q171 159 164 165 Q161 167 159 167 Z" /><glyph glyph-name="uni65CF" unicode="&#x65cf;" d="M137 169 Q132 158 125 145 Q125 143 119 122 Q118 113 118 104 Q122 106 126 109 Q126 111 126 113 Q128 115 136 116 Q138 119 143 129 Q145 128 147 126 Q151 126 155 126 Q176 133 196 141 Q196 143 197 147 Q196 149 195 151 Q190 155 185 157 Q184 156 182 156 Q180 154 176 151 Q164 147 152 143 Q151 145 157 157 Q157 159 156 161 Q155 164 152 167 Q144 169 137 169 ZM80 165 Q77 163 74 161 Q72 158 72 154 Q74 152 96 133 Q99 133 103 137 Q104 141 104 149 Q102 152 100 155 Q97 157 94 160 Q91 161 88 163 Q84 164 80 165 ZM93 126 Q75 120 57 113 Q47 109 34 103 Q34 99 40 89 Q44 86 49 84 Q52 84 55 84 Q63 88 72 92 Q74 93 75 93 Q75 93 75 92 Q58 66 39 39 Q31 26 29 20 Q31 20 57 40 Q62 45 67 51 Q75 61 82 71 Q83 73 89 74 Q90 74 92 72 Q92 67 92 61 Q89 52 87 42 Q85 38 83 34 Q79 30 68 22 Q56 25 50 28 Q52 23 55 17 Q54 10 54 3 Q57 1 63 0 Q72 3 83 8 Q90 13 98 19 Q102 25 108 36 Q111 32 117 28 Q119 27 122 26 Q126 27 131 30 Q114 -6 112 -15 Q129 -1 140 10 Q144 14 147 19 Q151 27 155 35 Q156 37 183 42 Q196 44 213 44 Q216 46 218 48 Q221 53 221 56 Q221 59 219 61 Q215 64 210 67 Q206 67 201 68 Q184 64 166 61 Q165 65 165 71 Q164 75 162 79 Q174 84 188 89 Q190 90 192 93 Q194 96 194 99 Q193 100 192 102 Q187 106 181 109 Q179 109 149 96 Q149 100 144 107 Q143 108 135 109 Q133 109 131 107 Q130 103 129 98 Q122 85 115 71 Q116 70 117 69 Q120 70 123 71 Q126 70 131 68 Q135 70 138 73 Q142 74 145 74 Q146 71 146 69 Q144 62 142 56 Q141 54 111 44 Q113 67 112 81 Q109 85 105 88 Q101 88 92 86 Q94 89 94 93 Q93 97 89 101 Q95 104 101 107 Q103 108 104 110 Q104 112 105 114 Q104 118 104 122 Q101 123 98 125 Q96 126 93 126 ZM172 32 Q170 32 167 31 Q166 28 166 26 Q170 20 174 14 Q181 1 187 -13 Q190 -16 193 -19 Q198 -15 202 -9 Q205 0 205 5 Q203 9 201 13 Q197 17 192 23 Q188 26 183 30 Q182 31 172 32 Z" /><glyph glyph-name="uni662F" unicode="&#x662f;" d="M142 170 Q139 168 136 167 Q128 167 106 164 Q103 164 100 166 Q99 166 97 166 Q94 165 93 162 Q90 152 88 141 Q88 127 88 113 Q90 104 93 95 Q94 92 96 88 Q99 87 101 86 Q114 89 128 94 Q130 95 132 96 Q135 96 140 94 Q142 94 145 96 Q150 101 155 107 Q157 112 159 117 Q160 125 161 133 Q161 147 162 161 Q161 162 159 165 Q155 167 150 170 Q147 170 142 170 ZM135 155 Q136 155 138 153 Q138 150 139 145 Q138 132 135 112 Q122 108 110 105 Q108 111 107 117 Q113 118 120 120 Q124 122 128 125 Q130 128 132 131 Q132 134 132 136 Q131 137 130 138 Q124 138 108 136 Q107 136 108 145 Q109 147 135 155 ZM166 89 Q159 86 152 85 Q129 82 105 78 Q85 72 64 65 Q62 63 60 60 Q63 55 68 49 Q75 50 118 63 Q118 45 118 27 Q109 30 100 35 Q100 37 104 39 Q105 44 105 50 Q104 52 103 54 Q101 55 99 55 Q96 55 93 53 Q79 41 65 28 Q54 17 44 6 Q39 -1 35 -7 Q39 -5 52 1 Q60 5 77 19 Q80 19 85 20 Q88 19 93 19 Q96 17 127 -7 Q136 -10 145 -14 Q156 -16 168 -19 Q174 -19 181 -18 Q185 -14 190 -9 Q199 -9 212 -11 Q213 -11 215 -10 Q215 -7 215 -4 Q214 -2 212 0 Q211 1 208 2 Q199 4 134 16 Q133 26 133 37 Q136 38 152 40 Q155 40 163 46 Q162 48 161 51 Q158 54 153 57 Q144 55 135 54 Q134 54 135 66 Q136 67 149 69 Q158 69 167 71 Q171 70 176 69 Q179 70 183 72 Q183 79 182 83 Q179 85 166 89 Z" /><glyph glyph-name="uni6982" unicode="&#x6982;" d="M59 167 Q55 165 52 160 Q51 146 49 133 Q38 127 27 122 Q25 120 21 117 Q21 114 28 103 Q32 101 37 98 Q41 97 46 97 Q48 96 48 95 Q34 68 20 41 Q17 32 16 23 Q17 22 27 29 Q36 42 45 54 Q45 53 45 -6 Q45 -9 47 -11 Q50 -15 52 -15 Q61 -9 64 -4 Q64 30 64 64 Q64 65 73 62 Q77 62 79 64 Q80 44 81 25 Q77 22 72 18 Q72 14 75 10 Q80 8 85 5 Q88 7 91 8 Q102 16 113 28 Q115 30 120 39 Q121 37 121 35 Q125 32 129 32 Q120 16 112 1 Q111 -2 113 -6 Q123 5 134 14 Q148 33 161 52 Q157 39 154 26 Q154 14 155 3 Q159 -4 164 -11 Q171 -14 184 -17 Q195 -17 206 -17 Q213 -15 220 -13 Q225 -9 230 -4 Q232 -1 234 3 Q233 6 232 10 Q229 14 225 19 Q223 28 221 31 Q218 29 213 14 Q211 13 209 11 Q202 8 190 7 Q182 8 172 12 Q171 18 171 24 Q173 32 175 41 Q180 49 184 57 Q184 61 182 67 Q178 68 173 71 Q178 76 182 83 Q187 84 193 86 Q198 86 204 87 Q207 90 209 94 Q209 96 209 99 Q207 102 204 105 Q202 105 191 105 Q189 105 184 112 Q182 112 180 111 Q175 105 171 99 Q162 96 153 92 Q151 97 148 103 Q147 104 134 108 Q136 111 137 114 Q141 135 141 143 Q139 145 138 147 Q134 150 130 153 Q127 154 123 155 Q121 155 98 146 Q95 146 88 141 Q84 126 82 110 Q82 94 81 78 Q80 77 79 77 Q77 79 64 85 Q66 93 66 109 Q74 115 82 121 Q82 122 82 133 Q81 134 81 135 Q76 138 70 142 Q72 147 73 153 Q73 155 72 158 Q69 161 65 165 Q62 167 59 167 ZM184 150 Q159 142 154 139 Q153 134 157 126 Q159 123 168 119 Q176 119 184 121 Q193 124 201 128 Q203 131 204 134 Q203 138 202 142 Q199 144 196 147 Q191 149 184 150 ZM118 142 Q118 142 120 141 Q120 136 120 131 Q117 114 114 97 Q105 91 97 85 Q96 88 96 92 Q97 98 98 105 Q98 105 103 105 Q109 107 114 111 Q114 115 113 117 Q110 119 107 119 Q104 118 100 117 Q100 124 101 131 Q109 136 117 141 L118 142 ZM133 98 Q134 98 140 87 Q134 84 129 81 Q126 77 127 74 Q130 70 134 66 Q137 65 141 65 Q150 70 152 70 Q146 58 138 46 Q137 46 136 45 Q134 50 133 55 Q129 60 125 65 Q122 68 117 71 Q115 71 112 71 Q109 65 109 60 Q112 54 116 48 Q96 34 95 35 Q95 49 95 64 Q102 68 109 73 Q117 80 125 87 Q125 89 125 91 Q129 94 133 98 Z" /><glyph glyph-name="uni6C38" unicode="&#x6c38;" d="M121 167 Q100 163 98 162 Q96 159 95 156 Q97 151 99 145 Q105 140 110 138 Q113 138 116 137 Q128 139 136 143 Q137 145 138 146 Q138 151 137 156 Q134 159 131 162 Q125 165 122 166 L121 167 ZM114 126 Q109 123 104 120 Q96 117 88 115 Q86 113 85 111 Q86 107 87 103 Q91 100 94 97 Q99 97 104 98 Q105 98 107 97 Q107 58 107 17 Q105 14 105 10 Q102 7 101 5 Q95 4 89 4 Q91 -2 93 -9 Q94 -11 95 -13 Q98 -14 100 -16 Q107 -13 115 -10 Q117 -9 120 -8 Q122 -5 124 -2 Q126 3 127 12 Q127 36 128 61 Q139 46 150 32 Q159 23 168 16 Q176 11 184 8 Q188 11 191 14 Q197 13 203 12 Q206 11 210 9 Q211 9 213 10 Q215 11 216 13 Q215 15 214 17 Q208 21 203 27 Q188 36 173 45 Q166 50 160 55 Q152 63 144 71 Q145 72 181 90 Q184 91 186 94 Q186 97 186 99 Q184 101 182 104 Q179 106 176 108 Q172 109 168 109 Q166 107 139 77 Q135 81 128 87 Q128 95 133 115 Q132 117 128 121 Q126 123 114 126 ZM85 83 Q78 79 70 76 Q56 71 40 68 Q38 67 36 65 Q35 62 38 54 Q41 50 46 46 Q51 47 56 48 Q75 65 81 68 Q79 64 78 59 Q61 31 43 2 Q55 10 68 20 Q72 24 75 27 Q89 46 102 65 Q103 68 102 77 Q98 79 94 82 Q91 83 85 83 Z" /><glyph glyph-name="uni767E" unicode="&#x767e;" d="M182 171 Q174 169 121 168 Q101 166 81 164 Q68 162 54 160 Q50 158 45 156 Q43 154 41 152 Q41 147 43 141 Q47 137 51 132 Q55 130 59 128 Q63 128 67 128 Q98 138 111 142 Q111 140 99 108 Q97 106 95 105 Q89 108 82 108 Q79 103 76 98 Q74 84 72 70 Q73 31 75 18 Q78 6 87 -11 Q91 -13 95 -14 Q98 -13 101 -9 Q115 -7 129 -4 Q135 -12 139 -20 Q151 -16 162 -14 Q165 -13 169 -9 Q172 -4 175 0 Q178 9 179 24 Q180 41 179 72 Q178 85 176 98 Q174 105 170 112 Q163 116 156 119 Q153 119 150 119 Q146 116 141 112 Q133 110 124 110 Q128 117 135 123 Q137 128 139 134 Q139 135 138 137 Q133 142 128 146 Q135 147 168 149 Q171 149 174 149 Q178 149 198 141 Q202 144 207 147 Q209 153 209 158 Q207 161 205 164 Q200 167 194 169 Q192 171 182 171 ZM137 94 Q140 94 144 93 Q146 92 147 88 Q148 66 147 32 Q146 25 146 18 Q144 12 141 6 Q139 5 138 4 Q137 7 137 9 Q135 13 130 16 Q119 16 104 13 Q101 24 98 36 Q100 38 133 45 Q134 46 135 46 Q136 49 137 53 Q137 55 137 59 Q134 62 130 66 Q122 65 99 59 Q98 59 98 60 Q98 72 99 84 Q101 86 122 91 Q129 92 137 94 Z" /><glyph glyph-name="uni7814" unicode="&#x7814;" d="M101 164 Q85 161 69 159 Q64 158 60 157 Q58 156 56 154 Q56 149 59 143 Q62 141 66 138 Q71 138 74 137 Q65 117 38 67 Q33 55 28 35 Q30 37 48 59 Q50 48 54 37 Q57 31 64 24 Q67 24 69 25 Q71 29 72 32 Q85 37 99 41 Q100 42 102 42 Q103 45 104 48 Q103 55 111 87 Q108 90 104 93 Q100 94 96 96 Q92 96 69 91 Q84 117 98 143 Q99 145 120 150 Q120 153 120 156 Q118 158 117 161 Q115 163 112 164 Q107 164 101 164 ZM147 163 Q133 155 117 146 Q113 143 108 139 Q108 138 108 137 Q110 137 111 136 Q117 136 123 136 Q138 139 154 143 Q156 145 157 145 Q157 147 157 153 Q156 156 154 159 Q154 160 152 162 Q150 163 147 163 ZM190 163 Q166 153 161 150 Q161 147 161 144 Q164 139 170 133 Q170 119 170 104 Q152 97 140 92 Q141 88 142 84 Q144 81 147 78 Q151 77 154 75 Q160 75 169 78 Q170 10 172 -14 Q174 -14 175 -14 Q177 -10 178 -6 Q182 -1 187 2 Q188 4 191 11 Q192 29 192 83 Q194 84 196 85 Q205 86 215 87 Q217 88 219 89 Q221 92 223 96 Q223 98 222 101 Q220 103 218 106 Q215 107 212 109 Q211 110 210 110 Q201 110 192 109 Q193 117 193 125 Q193 127 187 134 Q188 135 205 140 Q206 143 208 145 Q209 148 210 151 Q209 153 208 155 Q206 158 203 161 Q197 161 190 163 ZM128 131 Q125 128 123 125 Q122 118 121 110 Q113 106 105 103 Q106 97 109 91 Q111 89 114 86 Q117 86 120 86 Q116 58 110 29 Q110 22 111 19 Q114 20 116 22 Q121 34 126 45 Q133 70 136 93 Q144 98 152 104 Q154 106 157 113 Q157 116 155 119 Q151 120 147 120 Q144 119 141 118 Q139 122 138 127 Q133 130 128 131 ZM86 81 Q87 80 88 71 Q86 64 84 56 Q77 53 69 50 Q67 60 66 70 Q75 75 85 80 L86 81 Z" /><glyph glyph-name="uni7AEF" unicode="&#x7aef;" d="M156 173 Q152 170 151 167 Q149 147 145 129 Q138 127 130 126 Q130 137 130 148 Q128 150 125 152 Q123 152 117 151 Q115 142 113 133 Q113 124 114 114 Q115 110 118 106 Q121 105 123 103 Q133 104 158 111 Q162 113 167 115 Q170 117 178 129 Q179 129 180 128 Q176 119 177 114 Q179 114 183 116 Q188 115 193 115 Q197 120 201 124 Q203 129 206 135 Q206 137 206 141 Q205 146 203 148 Q200 151 197 154 Q194 154 190 154 Q187 152 183 137 Q176 137 168 135 Q170 149 172 163 Q170 165 167 167 Q164 170 156 173 ZM62 156 Q57 154 55 152 Q55 148 55 143 Q64 135 66 133 Q54 130 42 127 Q40 126 38 124 Q38 122 38 120 Q39 116 41 112 Q45 108 49 105 Q54 105 59 105 Q64 107 70 109 Q72 109 76 103 Q80 103 84 105 Q87 112 88 116 Q94 118 101 121 Q102 125 102 134 Q100 136 97 139 Q93 140 90 139 Q86 145 78 152 Q76 153 74 154 Q69 156 62 156 ZM187 107 Q184 105 181 103 Q147 95 111 89 Q109 88 108 84 Q111 79 115 73 Q117 72 119 70 Q126 69 132 69 Q127 62 121 56 Q115 54 108 51 Q105 50 102 50 Q100 54 100 58 Q98 60 97 60 Q87 56 77 52 Q83 58 89 64 Q93 69 102 85 Q103 87 102 90 Q100 94 96 97 Q93 98 90 99 Q87 98 85 96 Q83 89 81 82 Q76 72 70 62 Q66 55 59 47 Q60 52 61 58 Q56 67 53 75 Q52 77 51 79 Q49 80 38 82 Q38 82 36 81 Q36 74 38 67 Q41 62 44 56 Q48 50 57 42 Q46 36 36 31 Q30 28 27 24 Q29 19 31 13 Q35 11 45 9 Q62 19 79 30 Q87 37 94 44 Q95 39 93 13 Q94 5 96 -3 Q98 -8 102 -14 Q105 -15 109 -15 Q111 -14 113 -11 Q114 -5 115 1 Q112 13 111 29 Q122 34 130 37 Q131 22 132 7 Q134 2 138 -2 Q142 2 147 8 Q145 23 145 39 Q145 39 146 41 Q151 42 157 44 Q158 43 159 40 Q159 13 161 -15 Q163 -10 171 0 Q174 19 175 47 Q177 48 197 54 Q198 54 200 51 Q200 41 199 30 Q196 12 194 4 Q183 2 173 3 Q176 -1 179 -6 Q177 -10 178 -15 Q181 -19 185 -23 Q194 -21 204 -18 Q209 -16 213 -13 Q218 -3 221 7 Q222 15 224 23 Q224 38 224 53 Q223 58 222 63 Q219 64 215 66 Q205 63 141 60 Q151 68 160 77 Q179 81 198 86 Q200 88 202 90 Q202 94 202 99 Q201 101 200 103 Q194 105 187 107 Z" /><glyph glyph-name="uni7BEE" unicode="&#x7bee;" d="M144 180 Q140 178 138 176 Q129 161 122 146 Q119 138 117 130 Q117 125 117 119 Q123 121 129 125 Q135 132 144 144 Q150 144 156 145 Q163 133 170 121 Q173 121 181 127 Q182 130 181 138 Q178 141 169 147 Q171 148 190 153 Q193 155 195 159 Q194 162 194 166 Q188 171 185 173 Q182 173 156 164 Q155 169 153 174 Q150 177 144 180 ZM75 174 Q73 173 70 171 Q60 155 52 138 Q50 131 48 124 Q48 118 49 111 Q52 111 66 121 Q73 132 81 144 Q83 144 87 144 Q88 137 89 130 Q91 128 94 126 Q97 127 101 130 Q101 134 103 137 Q101 141 100 146 Q106 147 112 148 Q115 150 119 153 Q119 157 118 160 Q114 163 110 166 Q99 164 89 161 Q86 164 83 169 Q80 172 75 174 ZM143 128 Q141 126 139 123 Q133 107 127 91 Q125 82 122 72 Q122 63 124 62 Q131 70 138 74 Q142 79 146 84 Q147 85 158 84 Q170 87 182 91 Q187 93 190 97 Q190 101 190 106 Q188 108 181 111 Q179 111 176 111 Q167 107 157 104 Q156 105 158 118 Q156 121 153 125 Q151 126 143 128 ZM87 121 Q85 116 83 111 Q83 87 83 62 Q84 53 85 43 Q85 41 90 38 Q93 39 96 40 Q99 44 101 49 Q101 82 101 114 Q99 116 97 119 Q93 121 87 121 ZM56 98 Q53 96 51 90 Q50 82 50 74 Q51 66 53 58 Q56 53 61 48 Q65 50 69 53 Q69 58 69 64 Q67 76 65 89 Q64 92 62 96 Q60 98 56 98 ZM166 74 Q158 70 142 66 Q140 66 138 64 Q139 59 141 53 Q145 50 149 48 Q153 48 157 48 Q168 50 179 56 Q180 57 181 58 Q181 63 179 67 Q176 70 166 74 ZM133 41 Q119 40 61 30 Q60 25 60 18 Q62 7 66 -4 Q49 -7 33 -11 Q33 -15 34 -19 Q37 -23 46 -30 Q67 -26 87 -23 Q116 -21 147 -20 Q164 -20 181 -21 Q198 -23 203 -24 Q208 -23 214 -22 Q217 -18 218 -11 Q216 -8 213 -4 Q210 -2 208 0 Q201 1 181 2 Q184 10 188 18 Q188 30 187 33 Q184 36 180 38 Q178 38 176 39 Q173 38 169 36 Q161 39 152 41 Q143 41 133 41 ZM152 28 Q158 28 163 27 Q163 24 163 21 Q160 12 157 4 Q149 2 142 2 Q149 27 152 28 ZM130 25 Q131 25 132 23 Q130 13 128 2 Q121 1 114 0 Q113 10 112 20 Q113 21 113 23 Q122 25 130 25 ZM93 19 Q95 19 97 18 Q98 8 99 -2 Q99 -2 83 -2 Q83 2 78 14 Q85 16 92 18 L93 19 Z" /><glyph glyph-name="uni7CFB" unicode="&#x7cfb;" d="M134 186 Q125 184 71 166 Q66 164 61 161 Q59 157 57 153 Q80 155 134 167 Q138 168 144 174 Q144 178 144 182 Q142 184 139 186 Q137 186 134 186 ZM155 173 Q147 169 139 165 Q111 148 83 130 Q81 129 79 128 Q74 129 69 132 Q67 131 66 131 Q61 127 58 122 Q58 112 61 109 Q87 99 95 94 Q86 87 76 80 Q71 78 61 76 Q57 72 55 68 Q56 63 57 58 Q63 52 69 48 Q90 53 111 58 Q112 58 115 58 Q116 58 117 56 Q118 48 118 -2 Q115 -5 111 -7 Q103 -8 94 -8 Q104 -31 107 -35 Q114 -32 120 -28 Q125 -27 130 -25 Q134 -22 137 -19 Q139 -14 141 -10 Q143 -5 144 22 Q142 56 140 64 Q150 67 160 70 Q163 70 170 66 Q173 68 175 68 Q178 72 180 78 Q180 89 179 91 Q175 96 171 101 Q164 106 156 111 Q168 119 180 127 Q181 129 183 131 Q183 136 180 143 Q176 144 173 146 Q171 147 166 146 Q140 128 115 109 Q113 108 97 119 Q98 121 99 122 Q112 127 160 151 Q162 153 164 155 Q166 160 166 164 Q166 167 164 170 Q161 172 155 173 ZM136 99 Q140 96 146 89 Q129 84 112 80 Q112 81 117 86 Q126 92 135 98 L136 99 ZM171 45 Q168 44 166 43 Q164 40 164 37 Q166 32 169 27 Q172 16 174 5 Q177 -2 182 -10 Q187 -7 195 0 Q197 5 200 10 Q201 13 201 17 Q198 24 195 30 Q190 35 185 41 Q181 43 171 45 ZM56 34 Q52 31 50 28 Q49 19 49 10 Q54 4 60 -2 Q65 -5 70 -9 Q72 -9 74 -9 Q77 -5 79 0 Q78 16 81 28 Q78 27 75 24 Q62 31 56 34 Z" /><glyph glyph-name="uni7ECF" unicode="&#x7ecf;" d="M75 166 Q67 155 59 144 Q50 127 41 111 Q39 109 37 106 Q34 105 30 104 Q29 102 28 98 Q28 94 28 90 Q43 85 60 78 Q46 60 33 42 Q33 40 33 38 Q37 31 42 27 Q63 33 83 39 Q90 42 104 50 Q103 54 101 57 Q99 59 95 61 Q78 55 62 52 Q78 71 95 90 Q102 100 110 111 Q110 115 112 118 Q111 121 105 130 Q103 132 99 132 Q97 131 94 129 Q90 121 72 96 Q71 95 70 95 Q64 98 57 103 Q57 106 58 108 Q64 115 71 121 Q80 133 87 147 Q88 156 86 159 Q84 162 81 164 Q78 166 75 166 ZM173 158 Q168 156 163 155 Q125 153 116 151 Q114 147 114 142 Q116 137 120 131 Q125 130 131 130 Q144 134 158 140 Q159 140 161 141 Q162 140 162 138 Q112 74 105 64 Q114 67 122 72 Q135 78 148 88 Q170 110 190 134 Q191 137 193 141 Q193 144 192 147 Q189 151 185 154 Q182 156 173 158 ZM182 106 Q177 104 172 102 Q171 100 171 97 Q177 93 197 76 Q202 72 207 70 Q208 71 210 72 Q210 77 212 82 Q210 89 209 96 Q206 98 204 100 Q197 102 182 106 ZM170 74 Q159 70 124 63 Q123 58 123 52 Q125 50 126 48 Q131 44 135 40 Q140 40 144 39 Q145 38 145 36 Q139 18 135 13 Q131 13 97 6 Q97 5 96 4 Q97 1 97 -3 Q99 -6 101 -9 Q105 -12 110 -16 Q126 -13 142 -11 Q159 -10 175 -10 Q193 -10 211 -12 Q216 -10 219 -7 Q221 -5 222 -3 Q222 -1 222 2 Q221 4 219 7 Q215 11 211 14 Q204 16 163 16 Q173 41 174 45 Q178 47 183 49 Q186 51 188 55 Q187 60 186 65 Q183 67 180 70 Q176 72 170 74 ZM98 28 Q67 18 37 8 Q35 8 33 6 Q32 3 32 1 Q33 -2 35 -5 Q39 -9 43 -11 Q47 -11 50 -10 Q69 -1 87 8 Q95 13 103 20 Q104 23 104 27 Q103 28 98 28 Z" /><glyph glyph-name="uni804C" unicode="&#x804c;" d="M99 165 Q95 162 39 149 Q39 146 39 142 Q41 139 42 136 Q51 127 53 125 Q49 113 46 83 Q45 67 45 51 Q45 41 47 31 Q38 27 29 23 Q26 21 25 18 Q26 15 28 11 Q31 9 33 6 Q36 5 39 5 Q45 5 62 13 Q74 19 86 27 Q88 26 88 -8 Q90 -11 94 -15 Q97 -14 100 -13 Q104 -9 108 -1 Q107 16 106 33 Q107 85 108 137 Q110 138 114 140 Q119 145 120 148 Q120 152 116 160 Q114 162 107 164 Q104 165 99 165 ZM192 152 Q189 150 186 148 Q179 148 148 144 Q146 144 144 143 Q140 145 136 148 Q134 148 127 147 Q126 142 124 138 Q124 117 126 97 Q131 85 136 73 Q140 67 145 61 Q148 61 151 61 Q153 64 155 66 Q173 69 192 72 Q195 73 198 78 Q206 103 215 129 Q215 134 215 139 Q214 142 212 145 Q210 146 207 148 Q204 150 192 152 ZM87 133 Q88 133 90 132 Q89 89 88 46 Q75 40 61 36 Q61 46 61 55 Q63 56 76 60 Q82 63 85 67 Q85 70 85 74 Q84 76 81 78 Q77 78 62 74 Q63 81 63 88 Q70 91 77 93 Q79 95 82 95 Q83 97 84 100 Q84 103 84 107 Q82 109 79 110 Q72 108 65 107 Q66 111 67 116 Q67 121 67 127 Q69 129 86 132 L87 133 ZM183 128 Q184 128 186 127 Q186 123 185 119 Q179 105 174 91 Q163 89 153 87 Q149 97 147 117 Q149 119 183 128 ZM148 50 Q145 49 143 48 Q135 38 128 28 Q122 17 117 7 Q113 -3 114 -8 Q137 14 162 36 Q163 38 163 45 Q161 46 159 48 Q157 49 148 50 ZM189 50 Q187 49 184 48 Q183 45 183 42 Q188 35 192 28 Q198 18 202 8 Q206 2 212 -4 Q217 0 222 7 Q225 15 226 23 Q222 30 215 39 Q208 44 201 49 Q196 50 189 50 Z" /><glyph glyph-name="uni8054" unicode="&#x8054;" d="M199 167 Q197 165 174 128 Q172 123 170 118 Q181 128 193 138 Q195 139 198 141 Q205 143 213 146 Q214 149 214 156 Q211 159 208 163 Q205 165 199 167 ZM106 166 Q102 164 97 162 Q54 155 40 151 Q39 150 40 143 Q42 139 45 134 Q49 131 53 128 Q59 128 92 133 Q91 90 89 45 Q67 36 62 35 Q62 45 61 55 Q62 57 81 62 Q83 63 85 67 Q85 70 85 73 Q84 74 82 76 Q81 76 79 77 Q72 75 62 71 Q62 72 62 86 Q72 90 82 95 Q85 99 85 104 Q83 106 81 108 Q78 108 66 104 Q66 116 65 122 Q64 123 62 124 Q60 124 56 124 Q53 120 51 117 Q48 105 46 92 Q45 41 47 29 Q41 26 35 24 Q32 23 27 19 Q27 14 31 8 Q35 5 40 4 Q45 4 87 25 Q88 24 89 -8 Q89 -10 91 -12 Q93 -13 95 -15 Q98 -14 101 -12 Q104 -8 108 -4 Q107 53 110 139 Q115 139 119 141 Q122 143 125 146 Q125 152 124 158 Q121 160 119 163 Q109 166 106 166 ZM138 151 Q135 149 133 145 Q133 136 137 126 Q143 120 147 119 Q151 120 156 124 Q154 131 150 139 Q148 143 144 148 Q142 150 138 151 ZM182 122 Q172 118 170 116 Q155 113 140 110 Q138 110 135 108 Q135 104 140 93 Q144 90 156 86 Q156 77 154 67 Q154 66 153 65 Q137 61 121 57 Q117 55 113 52 Q113 48 115 44 Q118 40 121 37 Q125 35 130 33 Q140 36 146 37 Q143 30 140 23 Q124 2 115 -14 Q119 -13 150 9 Q156 16 162 24 Q166 33 169 43 Q172 44 184 46 Q199 47 213 48 Q217 49 220 53 Q221 55 223 58 Q222 60 222 62 Q219 67 213 71 Q211 72 207 73 Q191 71 175 70 Q176 80 177 90 Q178 92 195 98 Q199 100 201 103 Q201 107 199 114 Q197 116 195 118 Q189 120 182 122 ZM187 28 Q186 27 184 26 Q182 24 181 22 Q201 -6 212 -17 Q213 -16 215 -16 Q217 -12 219 -8 Q221 -2 221 7 Q218 11 215 15 Q212 18 209 20 Q203 24 196 28 Q192 28 187 28 Z" /><glyph glyph-name="uni817E" unicode="&#x817e;" d="M146 173 Q144 169 141 165 Q138 153 136 140 Q133 139 130 138 Q131 146 129 157 Q127 160 124 162 Q122 162 120 160 Q118 155 118 149 Q120 143 124 137 Q117 135 111 134 Q109 133 108 133 Q109 130 109 127 Q109 125 115 120 Q119 119 124 120 Q126 120 128 120 Q129 120 129 118 Q127 115 126 110 Q117 109 107 107 Q104 106 100 104 Q100 98 103 94 Q106 92 108 90 Q115 91 116 89 Q97 63 90 56 Q89 67 89 79 Q91 83 94 91 Q93 92 89 91 Q89 120 92 151 Q91 152 90 154 Q87 156 82 158 Q81 158 79 158 Q74 156 69 153 Q66 153 62 153 Q61 155 53 160 Q51 160 49 158 Q46 153 45 147 Q46 140 45 117 Q43 99 41 81 Q33 35 25 -12 Q26 -14 28 -14 Q30 -12 31 -10 Q42 19 48 41 Q57 48 68 57 Q70 45 70 14 Q69 13 67 11 Q58 10 55 8 Q60 1 65 -8 Q67 -9 70 -12 Q71 -12 73 -11 Q79 -5 86 1 Q88 4 89 7 Q90 12 89 44 Q102 54 114 65 Q115 64 117 59 Q113 48 112 30 Q113 26 115 22 Q117 21 123 23 Q124 25 125 28 Q145 30 167 33 Q171 33 175 33 Q178 33 182 32 Q182 27 180 20 Q176 8 170 -1 Q168 -2 166 -3 Q156 -2 146 -1 Q149 -6 151 -17 Q153 -20 155 -22 Q160 -21 166 -21 Q175 -19 182 -15 Q185 -14 188 -10 Q191 -6 194 -1 Q196 3 198 7 Q201 15 203 23 Q204 32 203 38 Q203 39 196 44 Q195 45 194 46 Q192 46 190 46 Q188 44 185 42 Q176 43 167 44 Q171 47 175 51 Q180 56 183 62 Q184 62 185 62 Q191 59 203 55 Q207 56 211 60 Q212 61 221 58 Q223 59 224 59 Q225 61 226 64 Q223 67 211 75 Q189 86 167 97 Q167 97 167 98 Q180 99 193 101 Q195 103 196 108 Q194 111 189 116 Q188 117 187 118 Q182 118 178 118 Q162 115 145 113 Q145 118 147 123 Q161 126 175 129 Q179 134 180 138 Q178 140 177 143 Q174 145 172 147 Q180 150 187 153 Q190 154 192 157 Q192 160 191 162 Q190 164 183 170 Q180 169 164 146 Q159 144 154 143 Q153 144 158 160 Q157 165 154 170 Q153 171 150 173 Q149 173 146 173 ZM68 144 Q69 144 70 144 Q70 130 70 116 Q69 115 60 120 Q61 129 62 138 Q62 140 68 144 ZM59 103 Q64 101 69 99 Q69 88 69 76 Q61 70 53 64 Q56 83 58 102 L59 103 ZM140 95 Q141 95 143 95 Q151 87 160 79 Q144 78 127 77 Q131 85 135 94 Q137 95 140 95 ZM161 68 Q162 68 163 67 Q163 64 163 61 Q158 46 155 43 Q141 41 127 40 Q128 50 131 61 Q134 62 160 67 L161 68 ZM158 21 Q142 18 125 16 Q111 13 96 10 Q94 8 95 3 Q100 -1 105 -3 Q120 0 135 5 Q146 7 166 10 Q167 10 169 12 Q169 13 169 15 Q167 17 165 19 Q162 20 158 21 Z" /><glyph glyph-name="uni81EA" unicode="&#x81ea;" d="M118 183 Q114 181 87 143 Q85 142 75 147 Q73 146 71 146 Q68 142 65 138 Q62 123 59 91 Q60 24 62 3 Q64 -3 66 -10 Q70 -15 76 -19 Q79 -20 83 -20 Q97 -17 137 -12 Q139 -13 141 -15 Q144 -27 149 -33 Q162 -28 176 -22 Q180 -20 185 -17 Q187 -16 188 -12 Q190 -3 192 13 Q192 33 192 55 Q191 91 190 128 Q188 133 187 140 Q182 146 177 153 Q173 155 169 156 Q167 156 154 151 Q137 148 119 148 Q119 148 129 155 Q132 158 136 163 Q136 164 136 166 Q134 170 132 174 Q128 178 124 181 Q122 182 118 183 ZM150 137 Q152 136 154 134 Q155 131 156 127 Q157 100 159 73 Q158 43 158 13 Q157 0 155 -7 Q152 -9 149 -10 Q148 -10 147 -9 Q148 -7 149 -4 Q147 0 140 7 Q135 8 130 8 Q124 8 83 3 Q84 10 84 25 Q104 28 139 38 Q142 41 142 45 Q139 50 134 56 Q132 58 129 59 Q126 59 112 53 Q96 50 80 49 Q81 59 82 70 Q94 73 107 75 Q114 77 124 77 Q125 80 137 88 Q137 90 133 96 Q129 100 124 103 Q104 98 84 93 Q83 93 82 94 Q83 106 84 118 Q85 119 150 137 Z" /><glyph glyph-name="uni8981" unicode="&#x8981;" d="M142 174 Q131 170 118 167 Q103 165 89 165 Q88 163 87 161 Q88 156 89 151 Q91 147 94 143 Q98 142 102 141 Q102 135 102 129 Q78 123 65 122 Q65 111 68 100 Q74 88 80 76 Q83 73 87 70 Q91 71 107 75 Q108 75 107 73 Q104 69 102 65 Q100 63 44 51 Q40 49 35 48 Q33 45 33 41 Q34 38 36 35 Q41 30 46 26 Q49 26 52 26 Q66 31 81 37 Q81 37 82 36 Q80 32 80 29 Q81 24 83 18 Q85 16 87 15 Q93 14 100 14 Q91 7 74 -2 Q69 -6 68 -10 Q76 -10 94 -6 Q100 -4 107 -2 Q120 7 122 7 Q128 3 134 0 Q149 -12 165 -24 Q166 -24 168 -24 Q170 -21 171 -18 Q173 -3 173 2 Q171 5 168 9 Q154 16 136 25 Q139 30 143 36 Q146 42 148 49 Q149 50 158 51 Q170 51 182 53 Q187 53 208 49 Q211 49 215 53 Q217 58 217 63 Q216 65 214 66 Q207 71 199 75 Q197 75 191 71 Q173 70 156 69 Q149 69 137 73 Q134 70 132 67 Q127 66 122 66 Q126 73 131 80 Q136 80 141 82 Q144 82 153 81 Q161 85 170 91 Q173 96 176 101 Q181 110 186 122 Q185 125 184 128 Q183 129 181 131 Q176 134 170 136 Q163 134 140 135 Q141 141 143 148 Q144 149 152 152 Q154 153 156 158 Q156 163 155 168 Q151 171 147 174 Q145 174 142 174 ZM125 144 Q127 143 126 134 Q121 132 116 132 Q117 138 115 142 Q117 143 125 144 ZM154 121 Q156 121 158 121 Q159 119 159 116 Q156 107 153 98 Q143 97 139 96 Q137 96 136 96 Q136 97 136 99 Q137 109 139 119 Q146 120 154 121 ZM124 116 Q125 116 126 115 Q126 113 126 110 Q124 102 123 95 Q119 93 114 93 Q115 97 115 114 Q119 115 123 115 L124 116 ZM100 110 Q101 110 102 109 Q102 100 102 92 Q98 90 93 88 Q90 95 87 102 Q87 104 88 105 Q93 107 99 109 L100 110 ZM123 47 Q124 47 125 47 Q126 45 126 43 Q124 39 118 30 Q116 31 104 34 Q103 35 101 37 Q103 39 104 42 Q105 44 122 46 L123 47 Z" /><glyph glyph-name="uni8BA1" unicode="&#x8ba1;" d="M157 172 Q155 171 153 170 Q152 166 150 161 Q152 156 153 141 Q153 124 153 107 Q142 103 120 100 Q117 100 115 98 Q113 95 113 91 Q117 86 127 76 Q135 76 143 76 Q149 78 153 79 Q155 51 155 13 Q156 2 157 -9 Q158 -15 160 -21 Q162 -21 164 -19 Q173 6 176 16 Q177 28 176 84 Q177 85 202 91 Q205 93 208 96 Q208 99 209 102 Q208 105 208 107 Q206 110 203 113 Q197 115 191 116 Q184 113 177 111 Q177 136 179 153 Q178 155 178 158 Q177 160 170 168 Q168 169 167 170 Q164 172 157 172 ZM75 161 Q72 159 69 157 Q68 153 68 149 Q72 146 76 143 Q78 140 82 136 Q86 133 91 131 Q95 133 97 136 Q98 141 98 149 Q97 151 95 153 Q91 156 87 159 Q83 160 75 161 ZM81 120 Q77 117 73 115 Q60 112 46 110 Q44 109 42 108 Q41 105 41 101 Q41 94 44 87 Q48 87 60 92 Q64 93 68 94 Q68 94 70 93 Q70 56 70 20 Q64 15 58 8 Q58 6 58 4 Q61 1 69 -4 Q72 -4 75 -4 Q78 -2 83 3 Q91 13 99 23 Q103 28 107 34 Q108 38 110 43 Q110 45 109 47 Q108 47 107 47 Q98 41 88 35 Q88 62 90 90 Q91 96 97 110 Q97 112 95 115 Q92 117 88 119 Q85 120 81 120 Z" /><glyph glyph-name="uni8BBE" unicode="&#x8bbe;" d="M59 167 Q57 166 54 164 Q52 160 52 156 Q53 153 74 137 Q76 137 78 137 Q81 140 83 143 Q83 146 83 157 Q79 161 73 165 Q70 166 67 167 Q64 167 59 167 ZM164 167 Q159 163 155 159 Q146 157 137 156 Q134 159 129 163 Q126 162 124 159 Q123 156 121 153 Q118 133 116 113 Q116 106 116 98 Q117 92 120 89 Q126 94 133 99 Q133 117 135 136 Q136 136 137 138 Q146 140 155 144 Q156 143 156 140 Q154 125 153 110 Q154 106 155 102 Q157 100 165 99 Q171 100 176 101 Q186 105 195 109 Q196 112 196 115 Q194 118 192 121 Q189 123 171 122 Q173 135 182 160 Q182 161 178 164 Q171 166 164 167 ZM68 124 Q64 122 59 120 Q47 118 35 117 Q33 117 30 115 Q30 111 29 108 Q30 101 30 94 Q32 93 55 96 Q54 58 53 19 Q49 16 46 13 Q43 10 42 6 Q42 4 44 1 Q50 -2 56 -4 Q60 -3 65 -1 Q75 12 85 24 Q90 31 96 43 Q96 45 95 47 Q93 48 91 48 Q79 38 73 35 Q74 62 76 89 Q76 94 78 99 Q81 104 84 109 Q84 113 84 116 Q82 119 78 121 Q75 123 68 124 ZM154 92 Q137 82 118 75 Q116 74 114 72 Q114 69 116 65 Q110 66 102 68 Q99 66 96 63 Q95 60 94 56 Q96 53 97 49 Q105 46 113 43 Q116 41 131 20 Q118 14 104 7 Q100 5 95 3 Q93 1 93 -1 Q104 0 116 1 Q128 3 142 9 Q143 9 157 -1 Q173 -8 188 -16 Q192 -16 205 -10 Q209 -10 219 -12 Q221 -10 221 -6 Q220 -4 218 -2 Q190 13 163 28 Q169 51 175 81 Q175 83 163 91 Q159 92 154 92 ZM150 73 Q151 73 150 61 Q148 52 146 43 Q144 42 127 59 Q139 66 150 73 Z" /><glyph glyph-name="uni8DA3" unicode="&#x8da3;" d="M82 169 Q80 167 76 166 Q75 164 75 162 Q75 152 76 141 Q69 139 62 137 Q60 136 59 132 Q60 128 62 123 Q64 121 67 118 Q71 116 76 115 Q75 111 75 107 Q67 104 46 98 Q42 97 37 93 Q39 88 41 83 Q46 79 51 75 Q55 75 80 86 Q81 66 81 46 Q76 46 71 47 Q73 51 75 55 Q75 59 74 63 Q73 65 71 67 Q69 67 66 66 Q50 45 36 24 Q31 14 27 -3 Q29 -2 39 10 Q47 20 55 31 Q56 29 62 28 Q72 27 85 24 Q88 23 91 22 Q98 15 106 8 Q115 2 124 -3 Q135 -6 146 -11 Q162 -15 179 -18 Q183 -18 188 -18 Q190 -18 197 -10 Q209 -8 222 -6 Q223 -5 224 -3 Q224 -2 224 0 Q223 1 218 4 Q181 9 144 15 Q137 18 130 20 Q114 28 98 38 Q97 47 97 56 Q103 59 110 62 Q112 63 114 67 Q114 73 112 76 Q109 78 106 79 Q103 79 98 77 Q97 78 98 91 Q98 93 99 94 Q106 97 114 100 Q116 105 116 109 Q114 112 112 114 Q110 115 93 113 Q94 117 94 122 Q102 127 110 132 Q112 136 112 140 Q111 143 110 146 Q106 148 103 150 Q102 150 100 151 Q98 150 96 150 Q96 155 95 160 Q92 164 87 169 Q85 169 82 169 ZM151 153 Q144 150 117 144 Q117 144 115 143 Q117 136 121 130 Q119 111 117 90 Q117 76 119 61 Q114 58 110 55 Q110 52 111 50 Q114 46 118 43 Q121 43 124 43 Q132 49 141 56 Q142 38 144 20 Q148 27 154 35 Q155 43 156 51 Q164 54 172 57 Q174 58 177 58 Q187 49 197 42 Q200 42 211 45 Q216 43 220 42 Q222 42 223 43 Q223 47 222 49 Q219 52 193 72 Q195 77 198 83 Q206 131 205 134 Q203 135 194 136 Q192 136 164 123 Q165 119 170 113 Q173 113 176 114 Q179 119 183 123 Q184 125 186 125 Q186 115 186 105 Q183 88 182 85 Q178 90 173 95 Q169 97 163 99 Q161 98 158 98 Q159 124 158 136 Q160 138 163 140 Q163 142 163 144 Q162 146 161 148 Q158 150 151 153 ZM140 132 Q142 132 144 130 Q144 125 144 120 Q141 120 130 118 Q131 123 132 130 Q135 130 139 131 L140 132 ZM142 107 Q143 103 143 98 Q136 95 129 93 Q129 97 129 102 Q135 104 142 107 ZM158 86 Q163 84 165 81 Q167 80 172 68 Q165 62 157 58 Q157 72 158 86 ZM142 85 Q142 84 142 73 Q137 70 131 67 Q129 68 128 74 Q128 76 129 79 Q130 80 141 84 L142 85 Z" /><glyph glyph-name="uni8FBE" unicode="&#x8fbe;" d="M132 163 Q130 160 127 149 Q128 132 126 122 Q120 118 103 114 Q102 113 100 111 Q100 109 100 107 Q102 103 106 99 Q109 96 113 94 Q118 94 123 93 Q121 86 119 78 Q115 68 110 58 Q90 36 87 31 Q89 30 99 34 Q110 41 122 49 Q125 53 128 56 Q131 61 133 67 Q140 55 148 42 Q153 38 158 33 Q165 28 172 25 Q175 25 180 30 Q193 28 201 25 Q203 25 204 26 Q205 28 205 30 Q200 36 195 41 Q182 49 170 57 Q154 72 139 88 Q140 93 140 99 Q154 105 168 110 Q170 113 173 116 Q173 119 173 122 Q172 124 171 125 Q169 128 166 130 Q162 130 157 132 Q155 132 144 127 Q145 133 146 140 Q146 145 146 151 Q143 155 140 160 Q139 161 132 163 ZM55 139 Q52 138 49 136 Q47 134 45 131 Q45 128 46 124 Q47 122 49 121 Q56 120 69 116 Q73 116 75 118 Q76 120 76 129 Q74 131 72 134 Q71 135 69 136 Q66 137 55 139 ZM65 96 Q57 90 34 78 Q34 75 35 71 Q37 67 40 64 Q43 64 57 73 Q58 72 57 54 Q61 48 64 42 Q64 40 58 28 Q49 26 40 22 Q38 20 37 17 Q38 13 39 9 Q41 8 43 6 Q55 7 68 9 Q72 9 105 -5 Q124 -9 126 -10 Q141 -11 156 -13 Q174 -10 192 -7 Q193 -6 196 -5 Q198 0 200 5 Q207 6 214 7 Q215 8 216 9 Q216 11 215 14 Q213 15 210 16 Q184 14 158 12 Q145 12 132 13 Q124 14 117 16 Q102 20 88 25 Q82 27 76 28 Q73 28 62 28 Q62 28 61 28 Q66 32 71 37 Q73 41 74 44 Q72 50 69 57 Q69 62 69 67 Q73 74 77 82 Q77 86 76 89 Q74 92 71 95 Q68 96 65 96 Z" /><glyph glyph-name="uni963F" unicode="&#x963f;" d="M194 171 Q155 165 115 158 Q113 157 109 155 Q107 153 107 150 Q108 147 109 145 Q111 140 119 134 Q126 134 211 152 Q213 153 215 157 Q215 161 212 167 Q209 169 206 171 Q201 171 194 171 ZM52 171 Q50 170 48 169 Q44 165 42 161 Q39 147 36 97 Q36 56 37 14 Q38 8 40 1 Q44 -4 48 -6 Q50 -6 52 -6 Q55 -4 58 2 Q56 37 55 73 Q56 73 68 57 Q74 59 83 62 Q86 63 93 71 Q94 71 101 58 Q104 55 106 53 Q109 52 111 51 Q112 53 113 55 Q131 62 150 69 Q152 71 153 75 Q153 81 151 85 Q154 92 156 98 Q156 102 156 106 Q154 108 152 110 Q146 114 140 116 Q137 116 134 116 Q119 112 96 102 Q93 112 90 117 Q87 120 79 124 Q89 135 102 154 Q103 157 105 159 Q104 163 102 167 Q100 169 97 170 Q92 171 87 171 Q84 171 81 170 Q78 167 74 164 Q68 163 61 161 Q59 164 58 167 Q56 169 52 171 ZM75 151 Q76 151 76 150 Q76 147 75 144 Q68 125 61 106 Q66 110 71 115 Q73 113 76 110 Q77 109 78 107 Q78 100 78 94 Q77 89 76 84 Q72 81 68 77 Q61 77 54 79 Q56 112 58 145 Q66 148 74 150 L75 151 ZM176 145 Q174 144 171 143 Q170 142 168 139 Q170 121 172 102 Q173 77 172 21 Q171 16 170 12 Q168 9 164 7 Q148 6 144 4 Q151 -8 159 -21 Q172 -15 187 -8 Q189 -4 192 0 Q195 6 197 20 Q197 31 198 43 Q195 85 193 129 Q192 132 191 136 Q186 140 181 144 Q179 145 176 145 ZM60 106 Q60 105 61 105 L60 106 ZM131 100 Q132 100 132 96 Q130 89 128 83 Q121 79 113 75 Q109 80 107 89 Q114 93 131 100 Z" /><glyph glyph-name="uni96F6" unicode="&#x96f6;" d="M134 173 Q125 170 94 165 Q93 161 96 153 Q98 150 101 149 Q106 147 110 147 Q111 145 111 141 Q101 140 66 135 Q62 135 59 138 Q57 138 51 137 Q49 116 44 94 Q46 92 47 89 Q50 89 53 89 Q56 90 59 92 Q62 105 64 118 Q69 120 103 127 Q110 128 112 128 Q112 113 113 99 Q88 78 71 60 Q57 45 44 29 Q33 16 29 8 Q32 10 34 12 Q44 17 53 22 Q64 30 75 41 Q108 74 108 76 Q115 79 121 83 Q125 82 130 81 Q133 78 137 76 Q144 68 151 60 Q170 45 189 32 Q193 30 197 29 Q199 29 207 34 Q210 34 213 32 Q218 32 221 35 Q222 36 222 37 Q220 40 217 43 Q208 50 174 71 Q162 80 150 90 Q144 94 138 98 Q133 100 126 102 Q130 116 132 131 Q149 132 167 132 Q173 132 179 131 Q180 130 179 129 Q171 120 165 111 Q175 115 185 119 Q194 120 204 121 Q206 123 207 127 Q206 130 203 138 Q200 142 193 148 Q191 149 188 149 Q182 145 176 143 Q153 143 130 143 Q130 145 131 149 Q132 150 143 153 Q146 154 149 158 Q148 162 147 165 Q145 168 142 171 Q137 173 134 173 ZM148 125 Q146 124 144 123 Q142 121 142 118 Q142 117 144 115 Q148 113 152 111 Q155 111 159 111 Q161 112 162 113 Q162 116 162 118 Q161 121 157 123 Q155 125 148 125 ZM81 118 Q79 117 78 115 Q78 113 79 110 Q84 107 90 105 Q94 105 98 105 Q100 106 101 108 Q101 110 101 112 Q100 113 95 118 Q88 118 81 118 ZM152 106 Q149 106 145 105 Q143 103 142 100 Q143 98 145 96 Q150 94 155 93 Q158 94 162 94 Q163 95 164 96 Q164 99 164 102 Q163 103 161 105 Q159 106 152 106 ZM79 99 Q77 98 75 95 Q75 93 76 91 Q81 88 86 86 Q90 86 94 86 Q95 88 96 89 Q95 91 95 94 Q95 95 90 98 Q85 99 79 99 ZM113 71 Q111 71 108 67 Q110 62 113 58 Q111 53 110 48 Q113 50 117 52 Q119 53 128 52 Q130 54 133 56 Q133 59 133 63 Q133 65 132 67 Q128 69 125 71 Q120 71 113 71 ZM145 52 Q127 47 110 42 Q96 40 83 39 Q81 38 78 36 Q79 32 81 27 Q86 22 92 18 Q96 18 101 18 Q114 26 127 34 Q130 35 134 37 Q135 36 134 30 Q130 22 125 13 Q120 15 115 16 Q113 16 111 16 Q108 15 105 12 Q112 2 120 -13 Q123 -18 128 -23 Q132 -19 135 -15 Q137 -10 139 -4 Q138 -2 138 0 Q135 3 132 7 Q138 10 147 17 Q152 23 158 29 Q161 33 162 39 Q162 42 161 46 Q157 48 145 52 Z" /><glyph glyph-name="uni9B45" unicode="&#x9b45;" d="M158 171 Q155 169 152 165 Q153 158 153 148 Q149 146 143 144 Q140 143 138 140 Q138 136 142 130 Q143 128 145 125 Q149 124 153 123 Q153 117 153 112 Q144 107 134 103 Q129 101 123 98 Q121 97 119 94 Q120 91 120 88 Q124 84 130 79 Q132 78 134 78 Q140 80 147 85 Q148 84 148 84 Q134 67 117 44 Q114 45 112 46 Q112 50 108 56 Q107 57 103 58 Q100 56 89 28 Q88 28 89 39 Q93 49 95 58 Q95 60 91 66 Q95 68 100 70 Q102 75 112 88 Q120 115 122 117 Q122 123 119 131 Q118 132 117 134 Q116 135 108 138 Q80 134 66 132 Q65 132 67 134 Q83 144 90 151 Q91 153 91 156 Q89 158 86 161 Q83 162 80 163 Q76 162 72 161 Q67 148 57 132 Q55 130 53 130 Q48 132 43 134 Q40 134 37 132 Q36 129 35 126 Q35 114 35 102 Q37 88 39 74 Q44 64 50 53 Q55 52 61 54 Q48 33 35 13 Q29 2 25 -10 Q25 -11 25 -13 Q25 -13 27 -13 Q38 0 50 13 Q62 32 75 51 Q72 37 72 23 Q73 15 74 6 Q77 1 81 -5 Q91 -11 100 -15 Q111 -18 147 -21 Q169 -19 192 -17 Q200 -13 208 -10 Q213 -2 224 9 Q224 12 223 16 Q223 17 212 25 Q209 32 206 39 Q206 39 204 39 Q203 37 202 34 Q199 24 196 14 Q190 10 184 8 Q175 6 167 4 Q148 2 130 2 Q116 2 102 3 Q100 4 97 4 Q93 8 90 12 Q89 17 88 22 Q89 23 93 18 Q103 22 114 26 Q115 24 121 23 Q124 27 125 31 Q122 37 122 43 Q123 45 140 52 Q146 57 153 62 Q153 62 154 61 Q153 47 153 32 Q151 30 141 28 Q143 19 147 10 Q150 9 153 10 Q160 14 171 25 Q173 29 173 33 Q173 34 173 60 Q174 61 200 43 Q204 43 210 47 Q212 47 216 45 Q220 44 224 46 Q225 47 225 49 Q223 51 222 53 Q215 59 208 66 Q190 78 173 91 Q173 94 175 95 Q182 97 191 99 Q195 99 200 99 Q202 101 204 102 Q204 106 205 111 Q204 113 203 116 Q200 118 196 119 Q190 121 184 122 Q182 122 173 117 Q172 122 172 127 Q174 129 183 134 Q186 138 186 142 Q184 148 182 150 Q178 152 173 153 Q172 154 173 162 Q170 165 166 168 Q163 170 158 171 ZM94 125 Q95 125 97 124 Q97 119 97 113 Q96 102 91 85 Q86 82 81 79 Q81 83 81 88 Q81 90 81 92 Q87 95 89 98 Q89 101 89 104 Q87 107 83 109 Q84 115 83 120 Q88 122 93 124 L94 125 ZM68 115 Q69 115 68 103 Q63 101 58 97 Q58 94 60 90 Q64 88 68 86 Q68 80 68 74 Q65 73 61 71 Q60 72 59 74 Q56 90 54 107 Q54 109 54 112 Q61 113 68 115 ZM107 41 Q109 39 110 36 Q107 35 104 33 Q105 37 107 41 Z" /><glyph glyph-name="uniFF0C" unicode="&#xff0c;" d="M120 101 Q118 100 114 97 Q112 92 112 84 Q114 81 117 77 Q121 75 130 76 Q131 76 132 75 Q132 73 132 71 Q130 68 128 64 Q126 61 123 57 Q119 55 114 55 Q114 52 114 49 Q120 49 126 52 Q128 54 132 57 Q135 63 139 72 Q139 77 139 82 Q139 87 137 93 Q135 96 132 99 Q130 100 128 101 Q125 101 120 101 Z" /></font>
</defs>
</svg>
